<svg class="svg-icon" style="width: 1em; height: 1em;vertical-align: middle;fill: currentColor;overflow: hidden;" viewBox="0 0 1024 1024" version="1.1" xmlns="http://www.w3.org/2000/svg"><path d="M846.9 429l-113-202.4-4 10.8-104.3-60.7c-91 78.9-207.4 18-207.4 18l-95 59.8L210.1 456l81.7 39.4 48.4-49.4v361.6h338l3.7-392.3 52 76.8 113-63.1z" fill="#B490D0" /><path d="M694.1 424.1v-0.7c0.2-15.4-23.8-15.5-24 0-0.1 13-0.3 25.9-0.4 38.9-0.3 31.1-0.6 62.2-1 93.3l-1.2 113c-0.3 32.6-0.7 65.2-1 97.7l-0.3 32.4c0 1.3-0.1 2.7-0.1 4H352v-26.8-92.6-112.5V474c0-15.7 0.6-31.6 0-47.3v-0.7c0-15.4-24-15.5-24 0v340.7c0 15.7-0.6 31.6 0 47.3v0.7c0 6.5 5.5 12 12 12h338c6.5 0 11.9-5.5 12-12 0.1-13 0.3-25.9 0.4-38.9 0.3-31.1 0.6-62.2 1-93.3l1.2-113c0.3-32.6 0.7-65.2 1-97.7 0.2-15.9 1-31.9 0.5-47.7zM298.2 240.4c36.8-22.3 73.5-44.6 110.3-66.9 5.2-3.2 10.5-6.4 15.7-9.5h-12.1c13.1 8.2 28 14.2 42.6 19.1 30.3 10.2 63.1 14 94.7 7.8 21.4-4.2 41.6-13.6 58.8-26.9h-12.1c38 21.5 75.9 43.1 113.9 64.6 5.4 3 10.7 6.1 16.1 9.1 13.5 7.6 25.6-13.1 12.1-20.7-38-21.5-75.9-43.1-113.9-64.6-5.4-3-10.7-6.1-16.1-9.1-3.4-1.9-8.8-2.5-12.1 0-27.3 21-58.7 29-92.3 26.1-11.8-1-26.1-4.1-39.1-8.2-5.7-1.8-11.3-3.9-16.8-6.1-0.6-0.2-1.1-0.5-1.7-0.7 0.3 0.1 2.4 1 0.4 0.2-1-0.5-2.1-0.9-3.1-1.4-2.1-0.9-4.2-1.9-6.3-2.9-4.4-2.1-8.8-4.4-13-7-3.6-2.2-8.5-2.2-12.1 0-36.8 22.3-73.5 44.6-110.3 66.9-5.2 3.2-10.5 6.4-15.7 9.5-13.2 8-1.1 28.8 12.1 20.7z"  /><path d="M346.1 415c-5.9-3.5-12.7-1-16.4 4.3-13.9 20.1-27.7 40.3-41.6 60.4-29.7-16.6-59.5-33.2-89.2-49.8-1.3-0.7-2.5-1.4-3.8-2.1 10.8-19.2 21.5-38.3 32.3-57.5 20.3-36.2 40.6-72.3 60.9-108.5 4.6-8.2 9.3-16.5 13.9-24.7 7.6-13.5-13.2-25.6-20.7-12.1-12.7 22.7-25.5 45.4-38.2 68.1-20.3 36.2-40.6 72.3-60.9 108.5-4.6 8.2-9.3 16.5-13.9 24.7-3.1 5.6-1.4 13.2 4.3 16.4l99 55.2 14.1 7.8c6 3.3 12.7 1.1 16.4-4.3l48.3-70.2c3.4-5.2 0.8-13.1-4.5-16.2zM857.3 426.4c-12.8-22.9-25.5-45.7-38.3-68.6-20.2-36.3-40.5-72.5-60.7-108.8-4.7-8.3-9.3-16.7-14-25-7.5-13.5-28.3-1.4-20.7 12.1 12.8 22.9 25.5 45.7 38.3 68.6 20.2 36.3 40.5 72.5 60.7 108.8 2.7 4.8 5.3 9.6 8 14.4-29.6 16.5-59.1 33-88.7 49.5-1.4 0.8-2.9 1.6-4.3 2.4-13.9-20.1-27.7-40.3-41.6-60.4-3.7-5.3-10.5-7.7-16.4-4.3-5.3 3.1-8 11.1-4.3 16.4l48.3 70.2c3.7 5.4 10.4 7.7 16.4 4.3l99-55.2 14.1-7.8c5.6-3.4 7.3-11 4.2-16.6z"  /></svg>